<?xml version="1.0" encoding="utf-8"?>
<!-- Generator: Adobe Illustrator 15.0.0, SVG Export Plug-In . SVG Version: 6.00 Build 0)  -->
<!DOCTYPE svg PUBLIC "-//W3C//DTD SVG 1.1//EN" "http://www.w3.org/Graphics/SVG/1.1/DTD/svg11.dtd">
<svg version="1.1" id="Layer_1" xmlns="http://www.w3.org/2000/svg" xmlns:xlink="http://www.w3.org/1999/xlink" x="0px" y="0px"
	 width="600px" height="307.834px" viewBox="0 0 600 307.834" enable-background="new 0 0 600 307.834" xml:space="preserve">
<g>
	<line fill="none" stroke="#E6E6E6" stroke-miterlimit="10" x1="9" y1="236.5" x2="269" y2="236.5"/>
	<line fill="none" stroke="#E6E6E6" stroke-miterlimit="10" x1="9" y1="216.5" x2="269" y2="216.5"/>
	<line fill="none" stroke="#E6E6E6" stroke-miterlimit="10" x1="9" y1="196.5" x2="269" y2="196.5"/>
	<line fill="none" stroke="#E6E6E6" stroke-miterlimit="10" x1="9" y1="176.5" x2="269" y2="176.5"/>
	<line fill="none" stroke="#E6E6E6" stroke-miterlimit="10" x1="9" y1="156.5" x2="269" y2="156.5"/>
	<line fill="none" stroke="#E6E6E6" stroke-miterlimit="10" x1="9" y1="136.5" x2="269" y2="136.5"/>
	<line fill="none" stroke="#E6E6E6" stroke-miterlimit="10" x1="9" y1="116.5" x2="269" y2="116.5"/>
	<line fill="none" stroke="#E6E6E6" stroke-miterlimit="10" x1="9" y1="96.5" x2="269" y2="96.5"/>
	<line fill="none" stroke="#E6E6E6" stroke-miterlimit="10" x1="9" y1="76.5" x2="269" y2="76.5"/>
	<line fill="none" stroke="#E6E6E6" stroke-miterlimit="10" x1="28.5" y1="56" x2="28.5" y2="256"/>
	<line fill="none" stroke="#E6E6E6" stroke-miterlimit="10" x1="48.5" y1="56" x2="48.5" y2="256"/>
	<line fill="none" stroke="#E6E6E6" stroke-miterlimit="10" x1="68.5" y1="56" x2="68.5" y2="256"/>
	<line fill="none" stroke="#E6E6E6" stroke-miterlimit="10" x1="88.5" y1="56" x2="88.5" y2="256"/>
	<line fill="none" stroke="#E6E6E6" stroke-miterlimit="10" x1="108.5" y1="56" x2="108.5" y2="256"/>
	<line fill="none" stroke="#E6E6E6" stroke-miterlimit="10" x1="128.5" y1="56" x2="128.5" y2="256"/>
	<line fill="none" stroke="#E6E6E6" stroke-miterlimit="10" x1="148.5" y1="56" x2="148.5" y2="256"/>
	<line fill="none" stroke="#E6E6E6" stroke-miterlimit="10" x1="168.5" y1="56" x2="168.5" y2="256"/>
	<line fill="none" stroke="#E6E6E6" stroke-miterlimit="10" x1="188.5" y1="56" x2="188.5" y2="256"/>
	<line fill="none" stroke="#E6E6E6" stroke-miterlimit="10" x1="208.5" y1="56" x2="208.5" y2="256"/>
	<line fill="none" stroke="#E6E6E6" stroke-miterlimit="10" x1="228.5" y1="56" x2="228.5" y2="256"/>
	<line fill="none" stroke="#E6E6E6" stroke-miterlimit="10" x1="248.5" y1="56" x2="248.5" y2="256"/>
</g>
<rect x="8.5" y="56.5" fill="none" stroke="#000000" stroke-miterlimit="10" width="260" height="200"/>
<rect x="337.5" y="81.5" fill="none" stroke="#000000" stroke-miterlimit="10" width="226" height="148"/>
<rect x="310.5" y="81.5" fill="none" stroke="#000000" stroke-miterlimit="10" width="27" height="148"/>
<rect x="310.5" y="229.5" fill="none" stroke="#000000" stroke-miterlimit="10" width="27" height="26"/>
<rect x="310.5" y="55.5" fill="none" stroke="#000000" stroke-miterlimit="10" width="27" height="26"/>
<rect x="563.5" y="81.5" fill="none" stroke="#000000" stroke-miterlimit="10" width="27" height="148"/>
<rect x="563.5" y="229.5" fill="none" stroke="#000000" stroke-miterlimit="10" width="27" height="26"/>
<rect x="563.5" y="55.5" fill="none" stroke="#000000" stroke-miterlimit="10" width="27" height="26"/>
<rect x="337.5" y="55.5" fill="none" stroke="#000000" stroke-miterlimit="10" width="226" height="26"/>
<rect x="337.5" y="229.5" fill="none" stroke="#000000" stroke-miterlimit="10" width="226" height="26"/>
<g>
	<g>
		<polyline fill="none" stroke="#000000" stroke-miterlimit="10" points="228.5,211 228.5,216.5 222,216.5 		"/>
		<line fill="none" stroke="#000000" stroke-miterlimit="10" stroke-dasharray="11,11" x1="211" y1="216.5" x2="60" y2="216.5"/>
		<polyline fill="none" stroke="#000000" stroke-miterlimit="10" points="54,216.5 48.5,216.5 48.5,211 		"/>
		<line fill="none" stroke="#000000" stroke-miterlimit="10" stroke-dasharray="12,12" x1="48.5" y1="199" x2="48.5" y2="109"/>
		<polyline fill="none" stroke="#000000" stroke-miterlimit="10" points="48.5,103 48.5,96.5 54,96.5 		"/>
		<line fill="none" stroke="#000000" stroke-miterlimit="10" stroke-dasharray="11,11" x1="66" y1="96.5" x2="217" y2="96.5"/>
		<polyline fill="none" stroke="#000000" stroke-miterlimit="10" points="222,96.5 228.5,96.5 228.5,103 		"/>
		<line fill="none" stroke="#000000" stroke-miterlimit="10" stroke-dasharray="12,12" x1="228.5" y1="115" x2="228.5" y2="205"/>
	</g>
</g>
<text transform="matrix(1 0 0 1 35.5 231.5)" font-family="'ArialMT'" font-size="12">(x, y)</text>
<g>
	<g>
		<line fill="none" stroke="#000000" stroke-miterlimit="10" x1="56" y1="171.5" x2="221" y2="171.5"/>
		<g>
			<polygon points="48.5,171 58.449,175.065 56.088,171 58.449,166.936 			"/>
		</g>
		<g>
			<polygon points="228.5,171 218.551,175.065 220.912,171 218.551,166.936 			"/>
		</g>
	</g>
</g>
<g>
	<g>
		<line fill="none" stroke="#000000" stroke-miterlimit="10" x1="8.5" y1="56.5" x2="8.985" y2="281.58"/>
		<g>
			<polygon points="9,288.641 4.913,278.7 8.984,281.053 13.043,278.684 			"/>
		</g>
	</g>
</g>
<g>
	<g>
		<line fill="none" stroke="#000000" stroke-miterlimit="10" x1="8" y1="56.5" x2="285.285" y2="56.5"/>
		<g>
			<polygon points="292.501,56.5 282.245,60.565 284.679,56.5 282.245,52.436 			"/>
		</g>
	</g>
</g>
<g>
	<g>
		<line fill="none" stroke="#000000" stroke-miterlimit="10" x1="37.5" y1="257" x2="37.5" y2="286"/>
		<g>
			<polygon points="37.5,249.743 33.435,259.691 37.5,257.332 41.564,259.691 			"/>
		</g>
	</g>
</g>
<text transform="matrix(1 0 0 1 24.2817 297.3848)" font-family="'ArialMT'" font-size="12">1 pixel</text>
<text transform="matrix(1 0 0 1 107.8198 166.8457)" font-family="'ArialMT'" font-size="12">width</text>
<g>
	<g>
		<line fill="none" stroke="#000000" stroke-miterlimit="10" x1="96.5" y1="104" x2="96.5" y2="210"/>
		<g>
			<polygon points="96.5,97 92.435,106.949 96.5,104.588 100.564,106.949 			"/>
		</g>
		<g>
			<polygon points="96.5,217 92.435,207.051 96.5,209.412 100.564,207.051 			"/>
		</g>
	</g>
</g>
<text transform="matrix(1 0 0 1 57.5635 130.3066)" font-family="'ArialMT'" font-size="12">height</text>
<circle cx="48.5" cy="216.5" r="5.039"/>
<g>
	<g>
		<path fill="none" stroke="#000000" stroke-width="2" stroke-miterlimit="10" d="M135.769,144.41
			c0-4.233,113.16-7.685,255.75-7.899"/>
		<g>
			<polygon points="405.641,136.5 385.791,144.749 390.464,136.59 385.693,128.489 			"/>
		</g>
	</g>
</g>
<g>
	<g>
		<path fill="none" stroke="#000000" stroke-width="2" stroke-miterlimit="10" d="M240.897,81.5
			c0-6.999,140.097-12.698,316.007-12.988"/>
		<g>
			<polygon points="571.025,68.5 551.192,76.789 555.85,68.621 551.062,60.529 			"/>
		</g>
	</g>
</g>
<g>
	<g>
		<path fill="none" stroke="#000000" stroke-width="2" stroke-miterlimit="10" d="M240.897,171.5
			c0-6.999,140.097-12.698,316.007-12.988"/>
		<g>
			<polygon points="571.025,158.5 551.192,166.789 555.85,158.621 551.062,150.529 			"/>
		</g>
	</g>
</g>
<g>
	<g>
		<line fill="none" stroke="#000000" stroke-width="2" stroke-miterlimit="10" x1="243" y1="243" x2="557" y2="243"/>
		<g>
			<polygon points="571,243 551.102,251.131 555.823,243 551.102,234.871 			"/>
		</g>
	</g>
</g>
<g>
	<g>
		<line fill="none" stroke="#000000" stroke-miterlimit="10" x1="479.166" y1="63.061" x2="479.166" y2="74.439"/>
		<g>
			<polygon points="479.166,56 475.101,65.949 479.166,63.588 483.23,65.949 			"/>
		</g>
		<g>
			<polygon points="479.166,81.5 475.101,71.551 479.166,73.912 483.23,71.551 			"/>
		</g>
	</g>
</g>
<text transform="matrix(1 0 0 1 447.5 96.436)" font-family="'ArialMT'" font-size="12">padding top</text>
<text transform="matrix(1 0 0 1 96.4995 35.167)" font-family="'ArialMT'" font-size="24">Image</text>
<text transform="matrix(1 0 0 1 325.6406 35.167)" font-family="'ArialMT'" font-size="24">Frame Texture Graphics</text>
</svg>
